# xmcd CD database file
#
# Track frame offsets:
#	150
#	26035
#	41607
#	57432
#	93167
#	124277
#	142590
#	160972
#	184075
#	198632
#	211100
#	224792
#
# Disc length: 3219 seconds
#
# Revision: 1
# Processed by: cddbd v1.5.1PL0 Copyright (c) Steve Scherf et al.
# Submitted via: CDex 1.51
#
DISCID=b10c910c
DTITLE=Maynard Ferguson Orchestra - The Complete Roulette Recordings - Disc 1
DYEAR=1958
DGENRE=Jazz
TTITLE0=And We Listened
TTITLE1=The Fugue
TTITLE2=Humbug
TTITLE3=Slide's Derangement
TTITLE4=Frame For The Blues
TTITLE5=The Waltz
TTITLE6=Three Little Foxes
TTITLE7=Tag Team
TTITLE8=Fan It, Janet
TTITLE9=Don'cha Go 'way Mad
TTITLE10=Bye Bye Blackbird
TTITLE11=Tenderly
EXTD=YEAR: 1958
EXTT0=
EXTT1=
EXTT2=
EXTT3=
EXTT4=
EXTT5=
EXTT6=
EXTT7=
EXTT8=
EXTT9=
EXTT10=
EXTT11=
PLAYORDER=
